<svg width="125" height="62" viewBox="0 0 125 62" fill="none" xmlns="http://www.w3.org/2000/svg">
<path d="M117.063 47.2905H7.5C5.21875 47.2905 3.375 45.446 3.375 43.1985V16.74C3.375 14.477 5.23438 12.6479 7.5 12.6479H117.063C119.344 12.6479 121.25 14.477 121.25 16.74V43.1985C121.25 45.446 119.344 47.2905 117.063 47.2905Z" fill="#A6A6A6"/>
<path d="M120.406 43.1986C120.406 45.0276 118.906 46.5156 117.062 46.5156H7.5C5.65625 46.5156 4.14062 45.0276 4.14062 43.1986V16.7401C4.14062 14.9111 5.64062 13.4231 7.5 13.4231H117.062C118.922 13.4231 120.406 14.9111 120.406 16.7401V43.1986Z" fill="black"/>
<path d="M29.6875 29.7756C29.6563 26.9856 31.9844 25.6216 32.0938 25.5596C30.7813 23.6531 28.7344 23.3896 28.0156 23.3741C26.2969 23.1881 24.625 24.3971 23.75 24.3971C22.8594 24.3971 21.5156 23.3896 20.0625 23.4206C18.1875 23.4516 16.4531 24.5211 15.4844 26.1951C13.5 29.5896 14.9844 34.5806 16.875 37.3396C17.8281 38.6881 18.9375 40.1916 20.375 40.1296C21.7969 40.0676 22.3281 39.2306 24.0313 39.2306C25.7344 39.2306 26.2188 40.1296 27.7031 40.0986C29.2188 40.0831 30.1875 38.7501 31.0938 37.3861C32.1875 35.8516 32.625 34.3326 32.6406 34.2551C32.6406 34.2241 29.7188 33.1236 29.6875 29.7756ZM26.8906 21.5761C27.6563 20.6306 28.1719 19.3441 28.0313 18.0266C26.9219 18.0731 25.5469 18.7861 24.75 19.7161C24.0469 20.5376 23.4219 21.8706 23.5781 23.1261C24.8125 23.2191 26.0938 22.5061 26.8906 21.5761ZM50.25 39.9281H48.2656L47.1719 36.5491H43.3906L42.3594 39.9281H40.4219L44.1563 28.3961H46.4688L50.25 39.9281ZM46.8594 35.1231L45.875 32.1161C45.7656 31.8061 45.5781 31.0776 45.2813 29.9461H45.25C45.1406 30.4421 44.9531 31.1551 44.7031 32.1161L43.7344 35.1231H46.8594ZM59.875 35.6656C59.875 37.0761 59.4844 38.1921 58.7188 39.0136C58.0312 39.7421 57.1719 40.1141 56.1562 40.1141C55.0469 40.1141 54.2656 39.7266 53.7813 38.9361H53.75V43.3226H51.875V34.3636C51.875 33.4801 51.8438 32.5656 51.8125 31.6201H53.4375L53.5469 32.9376H53.5781C54.2031 31.9456 55.1406 31.4496 56.4062 31.4496C57.3906 31.4496 58.2188 31.8371 58.875 32.6121C59.5312 33.3871 59.875 34.4101 59.875 35.6656ZM57.9688 35.7431C57.9688 34.9371 57.7812 34.2706 57.4219 33.7436C57.0156 33.2011 56.4844 32.9221 55.7969 32.9221C55.3438 32.9221 54.9219 33.0771 54.5469 33.3716C54.1719 33.6816 53.9219 34.0691 53.8125 34.5651C53.75 34.7976 53.7188 34.9836 53.7188 35.1231V36.5026C53.7188 37.1071 53.9063 37.6186 54.2813 38.0371C54.6563 38.4556 55.1406 38.6571 55.7344 38.6571C56.4375 38.6571 56.9844 38.3936 57.375 37.8511C57.7813 37.3241 57.9688 36.6266 57.9688 35.7431ZM69.5156 35.6656C69.5156 37.0761 69.125 38.1921 68.3594 39.0136C67.6719 39.7421 66.8125 40.1141 65.7969 40.1141C64.6875 40.1141 63.9062 39.7266 63.4219 38.9361H63.3906V43.3226H61.5312V34.3636C61.5312 33.4801 61.5 32.5656 61.4688 31.6201H63.1094L63.2188 32.9376H63.25C63.875 31.9456 64.8125 31.4496 66.0781 31.4496C67.0625 31.4496 67.8906 31.8371 68.5469 32.6121C69.1719 33.3871 69.5156 34.4101 69.5156 35.6656ZM67.6094 35.7431C67.6094 34.9371 67.4219 34.2706 67.0625 33.7436C66.6563 33.2011 66.125 32.9221 65.4375 32.9221C64.9844 32.9221 64.5625 33.0771 64.1875 33.3716C63.8125 33.6661 63.5625 34.0691 63.4531 34.5651C63.3906 34.7976 63.375 34.9836 63.375 35.1231V36.5026C63.375 37.1071 63.5625 37.6186 63.9375 38.0371C64.3125 38.4556 64.7969 38.6571 65.3906 38.6571C66.0938 38.6571 66.6406 38.3936 67.0312 37.8511C67.4219 37.3241 67.6094 36.6266 67.6094 35.7431ZM80.2812 36.7041C80.2812 37.6806 79.9375 38.4866 79.25 39.0911C78.5 39.7576 77.4375 40.0986 76.0781 40.0986C74.8281 40.0986 73.8281 39.8661 73.0625 39.3856L73.5 37.8511C74.3125 38.3471 75.2188 38.5796 76.1875 38.5796C76.8906 38.5796 77.4375 38.4246 77.8281 38.1146C78.2188 37.8046 78.4219 37.3861 78.4219 36.8591C78.4219 36.3941 78.2656 35.9911 77.9375 35.6811C77.6094 35.3556 77.0781 35.0611 76.3281 34.7976C74.2969 34.0381 73.2812 32.9376 73.2812 31.4961C73.2812 30.5506 73.6406 29.7756 74.3438 29.1711C75.0625 28.5666 76 28.2566 77.1875 28.2566C78.25 28.2566 79.125 28.4426 79.8281 28.7991L79.3594 30.3026C78.7031 29.9461 77.9688 29.7756 77.1406 29.7756C76.4844 29.7756 75.9688 29.9306 75.6094 30.2561C75.2969 30.5351 75.1406 30.8916 75.1406 31.2946C75.1406 31.7441 75.3125 32.1316 75.6719 32.4261C75.9844 32.7051 76.5469 32.9996 77.3594 33.3096C78.3594 33.7126 79.0938 34.1776 79.5625 34.7046C80.0469 35.2316 80.2812 35.8981 80.2812 36.7041ZM86.4375 32.9996H84.3906V37.0296C84.3906 38.0526 84.75 38.5641 85.4844 38.5641C85.8125 38.5641 86.0938 38.5331 86.3125 38.4711L86.3594 39.8661C85.9844 40.0056 85.5 40.0676 84.9062 40.0676C84.1719 40.0676 83.5938 39.8506 83.1875 39.4011C82.7656 38.9516 82.5625 38.2076 82.5625 37.1536V32.9686H81.3437V31.6201H82.5625V30.1011L84.3906 29.5586V31.6201H86.4375V32.9996ZM95.7031 35.7121C95.7031 36.9831 95.3281 38.0371 94.5938 38.8586C93.8281 39.6956 92.7969 40.1296 91.5312 40.1296C90.2969 40.1296 89.3281 39.7266 88.5938 38.9206C87.8594 38.1146 87.5 37.0916 87.5 35.8516C87.5 34.5651 87.875 33.5111 88.625 32.6896C89.375 31.8681 90.3906 31.4651 91.6719 31.4651C92.9062 31.4651 93.8906 31.8681 94.6406 32.6741C95.3438 33.4491 95.7031 34.4566 95.7031 35.7121ZM93.7656 35.7741C93.7656 35.0146 93.5938 34.3481 93.2656 33.8056C92.875 33.1391 92.3125 32.8136 91.5938 32.8136C90.8438 32.8136 90.2812 33.1391 89.8906 33.8056C89.5625 34.3481 89.3906 35.0301 89.3906 35.8051C89.3906 36.5646 89.5625 37.2311 89.8906 37.7736C90.2969 38.4401 90.8594 38.7656 91.5781 38.7656C92.2969 38.7656 92.8438 38.4246 93.25 37.7581C93.5938 37.2001 93.7656 36.5336 93.7656 35.7741Z" fill="white"/>
<path d="M101.75 33.2475C101.563 33.2165 101.375 33.201 101.172 33.201C100.516 33.201 100.016 33.449 99.6562 33.9295C99.3438 34.3635 99.1875 34.906 99.1875 35.5725V39.928H97.3281L97.3438 34.2395C97.3438 33.2785 97.3281 32.4105 97.2812 31.62H98.9062L98.9688 33.2165H99.0156C99.2031 32.674 99.5156 32.2245 99.9531 31.899C100.359 31.6045 100.812 31.4495 101.297 31.4495C101.469 31.4495 101.625 31.465 101.766 31.4805L101.75 33.2475ZM110.078 35.3865C110.078 35.712 110.047 35.991 110.016 36.2235H104.438C104.453 37.045 104.734 37.665 105.25 38.099C105.719 38.4865 106.328 38.6725 107.078 38.6725C107.906 38.6725 108.656 38.5485 109.344 38.285L109.641 39.5715C108.844 39.9125 107.906 40.083 106.828 40.083C105.531 40.083 104.516 39.711 103.766 38.9515C103.031 38.192 102.656 37.169 102.656 35.898C102.656 34.6425 103 33.604 103.688 32.767C104.406 31.8835 105.391 31.434 106.625 31.434C107.828 31.434 108.75 31.8835 109.359 32.767C109.828 33.4645 110.078 34.348 110.078 35.3865ZM108.297 34.906C108.312 34.3635 108.188 33.883 107.938 33.48C107.609 32.9685 107.125 32.705 106.453 32.705C105.844 32.705 105.344 32.953 104.969 33.4645C104.656 33.8675 104.469 34.348 104.422 34.906H108.297ZM44.7813 24.273H41.5312V18.6155H42.4531V23.5135H44.7813V24.273ZM49.0938 24.273H48.2813L48.2188 23.808H48.1875C47.9063 24.18 47.5 24.366 46.9844 24.366C46.5938 24.366 46.2813 24.242 46.0469 23.994C45.8281 23.777 45.7188 23.498 45.7188 23.157C45.7188 22.661 45.9219 22.2735 46.3438 22.01C46.7656 21.7465 47.3594 21.6225 48.125 21.6225V21.545C48.125 21.0025 47.8438 20.739 47.2656 20.739C46.8594 20.739 46.5 20.8475 46.1875 21.0335L46 20.429C46.375 20.1965 46.8594 20.0725 47.4063 20.0725C48.4844 20.0725 49.0156 20.6305 49.0156 21.762V23.2655C49.0469 23.715 49.0625 24.0405 49.0938 24.273ZM48.1563 22.878V22.2425C47.1406 22.227 46.6406 22.506 46.6406 23.064C46.6406 23.281 46.7031 23.436 46.8125 23.5445C46.9375 23.653 47.0781 23.6995 47.2656 23.6995C47.4688 23.6995 47.6563 23.6375 47.8281 23.5135C48 23.3895 48.1094 23.219 48.1406 23.033C48.1406 22.9865 48.1563 22.94 48.1563 22.878ZM54.2969 24.273H53.4844L53.4375 23.622H53.4062C53.1406 24.118 52.7031 24.366 52.0781 24.366C51.5781 24.366 51.1719 24.18 50.8438 23.7925C50.5156 23.405 50.3594 22.909 50.3594 22.289C50.3594 21.6225 50.5313 21.0955 50.8906 20.677C51.2344 20.2895 51.6562 20.1035 52.1562 20.1035C52.7031 20.1035 53.0938 20.2895 53.3125 20.6615H53.3281V18.321H54.25V23.1725L54.2969 24.273ZM53.3438 22.5525V21.8705C53.3438 21.7465 53.3281 21.6535 53.3125 21.5915C53.2656 21.3745 53.1563 21.1885 52.9844 21.0335C52.8125 20.8785 52.6094 20.8165 52.375 20.8165C52.0313 20.8165 51.7656 20.956 51.5781 21.2195C51.375 21.483 51.2813 21.8395 51.2813 22.258C51.2813 22.661 51.375 22.9865 51.5625 23.2345C51.7656 23.498 52.0313 23.6375 52.3594 23.6375C52.6563 23.6375 52.9063 23.529 53.0781 23.2965C53.2656 23.095 53.3438 22.847 53.3438 22.5525ZM59.2812 22.041C59.2812 22.2115 59.2656 22.3355 59.25 22.4595H56.5C56.5156 22.8625 56.6406 23.1725 56.8906 23.3895C57.125 23.5755 57.4219 23.6685 57.7812 23.6685C58.1875 23.6685 58.5625 23.6065 58.8906 23.4825L59.0312 24.118C58.6406 24.2885 58.1875 24.366 57.6563 24.366C57.0156 24.366 56.5156 24.18 56.1563 23.808C55.7969 23.436 55.6094 22.94 55.6094 22.3045C55.6094 21.6845 55.7813 21.173 56.125 20.77C56.4844 20.336 56.9531 20.119 57.5625 20.119C58.1562 20.119 58.6094 20.336 58.9063 20.77C59.1563 21.111 59.2812 21.5295 59.2812 22.041ZM58.4062 21.8085C58.4062 21.545 58.3594 21.3125 58.2344 21.111C58.0781 20.863 57.8281 20.739 57.5 20.739C57.2031 20.739 56.9531 20.863 56.7656 21.111C56.6094 21.3125 56.5313 21.545 56.5 21.824H58.4062V21.8085ZM64.1875 24.273H63.2656V21.9325C63.2656 21.2195 62.9844 20.8475 62.4375 20.8475C62.1719 20.8475 61.9531 20.9405 61.7812 21.142C61.6094 21.3435 61.5312 21.576 61.5312 21.8395V24.2575H60.6094V21.3435L60.5781 20.181H61.3906L61.4375 20.8165H61.4688C61.5781 20.615 61.7344 20.46 61.9375 20.3205C62.1875 20.1655 62.4688 20.088 62.7656 20.088C63.1563 20.088 63.4688 20.212 63.7188 20.46C64.0312 20.77 64.1875 21.2195 64.1875 21.8085V24.273ZM69.2812 18.972C69.2812 19.1425 69.2344 19.2665 69.125 19.3595C69.0156 19.468 68.875 19.5145 68.7031 19.5145C68.5469 19.5145 68.4219 19.468 68.3125 19.3595C68.2031 19.251 68.1563 19.127 68.1563 18.972C68.1563 18.817 68.2031 18.693 68.3125 18.5845C68.4219 18.4915 68.5469 18.4295 68.7188 18.4295C68.875 18.4295 69.0156 18.476 69.1094 18.5845C69.2344 18.693 69.2812 18.817 69.2812 18.972ZM69.1875 24.273H68.2656V20.181H69.1875V24.273ZM76.7031 24.273H75.8125V21.979C75.8125 21.2195 75.5469 20.8475 75.0313 20.8475C74.7813 20.8475 74.5781 20.9405 74.4375 21.1265C74.2812 21.3125 74.2188 21.5295 74.2188 21.7775V24.2575H73.3281V21.855C73.3281 21.545 73.2656 21.297 73.1406 21.111C73.0156 20.925 72.8281 20.832 72.5781 20.832C72.3281 20.832 72.125 20.925 71.9688 21.1265C71.8157 21.3213 71.7331 21.5616 71.7344 21.8085V24.242H70.8281V21.328L70.7969 20.1655H71.5781L71.625 20.7855H71.6563C71.9375 20.3205 72.3594 20.088 72.9063 20.088C73.4688 20.088 73.8438 20.336 74.0469 20.8475H74.0625C74.1875 20.6305 74.3594 20.46 74.5469 20.336C74.7813 20.1655 75.0625 20.088 75.3906 20.088C75.7656 20.088 76.0625 20.212 76.2969 20.46C76.5938 20.77 76.7344 21.235 76.7344 21.8395L76.7031 24.273Z" fill="white"/>
</svg>
