<svg width="92" height="20" viewBox="0 0 92 20" fill="none" xmlns="http://www.w3.org/2000/svg">
<path d="M0 10C0 4.40994 4.29561 0 9.82071 0C12.7502 0 15.4672 1.28882 17.1824 3.46273C17.5012 3.86646 17.6075 4.13043 17.6075 4.42547C17.6075 4.98447 17.1217 5.45031 16.5449 5.45031C16.1655 5.45031 15.8619 5.31056 15.6038 4.98447C14.1163 3.07453 12.1734 2.1118 9.85107 2.1118C5.55546 2.1118 2.32236 5.51242 2.32236 10C2.32236 14.4876 5.55546 17.8882 9.85107 17.8882C12.1734 17.8882 14.1163 16.8944 15.6038 15.0155C15.8619 14.6894 16.1806 14.5497 16.5449 14.5497C17.1217 14.5497 17.6075 15.0155 17.6075 15.5745C17.6075 15.8696 17.486 16.1335 17.1824 16.5373C15.528 18.7112 12.7654 20 9.82071 20C4.29561 19.9845 0 15.5901 0 10Z" fill="#0439D7"/>
<path d="M21.7209 18.7578V1.5062C21.7209 0.838497 22.1763 0.310547 22.8442 0.310547C23.4817 0.310547 23.9674 0.838497 23.9674 1.5062V17.9192H32.0122C32.6194 17.9192 33.0444 18.354 33.0444 18.9441C33.0444 19.5031 32.6194 19.9689 32.0122 19.9689H22.9049C22.2067 19.9689 21.7209 19.441 21.7209 18.7578Z" fill="#0439D7"/>
<path fill-rule="evenodd" clip-rule="evenodd" d="M71.5834 19.9845C72.1905 19.9845 72.6459 19.5187 72.6459 18.9597C72.6459 18.6802 72.5093 18.3852 72.2512 18.1056L67.2878 11.2112C69.6101 10.4504 71.0369 8.50938 71.0369 5.93174C71.0369 2.59323 68.6083 0.341675 64.9958 0.341675H59.501C58.8483 0.341675 58.3626 0.854097 58.3626 1.50627V18.8044C58.3626 19.4411 58.8332 19.969 59.4858 19.969C60.1234 19.969 60.6091 19.4566 60.6091 18.8044V11.5373H64.9047L70.6119 19.3634C70.9307 19.7827 71.2343 19.9845 71.5834 19.9845ZM64.9503 9.50313H60.6243V2.39133H64.9503C67.303 2.39133 68.7601 3.78884 68.7601 5.96276C68.7601 8.1522 67.3333 9.50313 64.9503 9.50313Z" fill="#0439D7"/>
<path fill-rule="evenodd" clip-rule="evenodd" d="M90.0409 19.9845C90.6177 19.9845 91.0731 19.5186 91.0731 18.9596C91.0731 18.618 90.9516 18.3851 90.6481 18.1211L82.2542 9.30124L89.7525 1.94099C90.1016 1.61491 90.2382 1.35093 90.2382 1.02484C90.2382 0.465838 89.7829 0 89.2061 0C88.9177 0 88.69 0.139752 88.3409 0.465838L80.1443 8.46273C79.9014 8.72671 79.7648 8.99068 79.7648 9.28571C79.7648 9.58074 79.9166 9.84472 80.1139 10.0776L89.1453 19.5186C89.4641 19.8447 89.7525 19.9845 90.0409 19.9845ZM79.1577 18.7887V1.21106C79.1577 0.527834 78.6719 -0.000115944 78.0344 0.015412C77.3666 0.015412 76.9112 0.543362 76.9112 1.21106V18.7887C76.9112 19.4564 77.3817 19.9844 78.0344 19.9844C78.6719 19.9844 79.1577 19.4564 79.1577 18.7887Z" fill="#0439D7"/>
<path d="M54.0063 18.1522L46.7508 0.791925C46.5231 0.263975 46.174 0 45.6883 0C45.2026 0 44.8534 0.263975 44.6258 0.791925L37.3703 18.1366C37.2488 18.4317 37.2033 18.6646 37.2033 18.8665C37.2033 19.4565 37.689 19.9845 38.2962 19.9845C38.7819 19.9845 39.1614 19.6894 39.3587 19.2236L40.74 15.854L40.7855 15.7298L41.6204 13.6801L45.6883 3.43168L49.6348 13.6957L50.5 15.7453L52.0179 19.2391C52.2455 19.705 52.5947 20 53.1107 20C53.6875 20 54.2036 19.472 54.2036 18.882C54.2036 18.6801 54.1429 18.4317 54.0063 18.1522Z" fill="#0439D7"/>
</svg>
