<svg width="36" height="36" viewBox="0 0 36 36" fill="none" xmlns="http://www.w3.org/2000/svg">
<rect width="36" height="36" rx="18" fill="#888DA0"/>
<path d="M18.0001 9.46655C15.6826 9.46655 15.392 9.47638 14.4818 9.5179C13.5736 9.55936 12.9532 9.7036 12.4104 9.91456C11.8493 10.1326 11.3734 10.4244 10.899 10.8988C10.4246 11.3732 10.1328 11.8491 9.91477 12.4102C9.70381 12.953 9.55958 13.5733 9.51811 14.4816C9.47659 15.3918 9.4668 15.6823 9.4668 17.9999C9.4668 20.3174 9.47659 20.608 9.51811 21.5181C9.55958 22.4264 9.70381 23.0467 9.91477 23.5895C10.1328 24.1506 10.4246 24.6265 10.899 25.1009C11.3734 25.5753 11.8493 25.8671 12.4104 26.0852C12.9532 26.2961 13.5736 26.4404 14.4818 26.4818C15.392 26.5233 15.6826 26.5332 18.0001 26.5332C20.3176 26.5332 20.6082 26.5233 21.5184 26.4818C22.4266 26.4404 23.047 26.2961 23.5897 26.0852C24.1509 25.8671 24.6268 25.5753 25.1012 25.1009C25.5756 24.6265 25.8674 24.1506 26.0854 23.5895C26.2964 23.0467 26.4406 22.4264 26.4821 21.5181C26.5236 20.608 26.5334 20.3174 26.5334 17.9999C26.5334 15.6823 26.5236 15.3918 26.4821 14.4816C26.4406 13.5733 26.2964 12.953 26.0854 12.4102C25.8674 11.8491 25.5756 11.3732 25.1012 10.8988C24.6268 10.4244 24.1509 10.1326 23.5897 9.91456C23.047 9.7036 22.4266 9.55936 21.5184 9.5179C20.6082 9.47638 20.3176 9.46655 18.0001 9.46655ZM18.0001 11.0041C20.2786 11.0041 20.5485 11.0128 21.4483 11.0538C22.2803 11.0918 22.7321 11.2308 23.0328 11.3477C23.4311 11.5025 23.7154 11.6874 24.014 11.986C24.3126 12.2846 24.4975 12.5689 24.6523 12.9672C24.7692 13.2678 24.9082 13.7197 24.9461 14.5517C24.9872 15.4515 24.9959 15.7214 24.9959 17.9999C24.9959 20.2783 24.9872 20.5482 24.9461 21.448C24.9082 22.28 24.7692 22.7319 24.6523 23.0326C24.4975 23.4309 24.3126 23.7151 24.014 24.0137C23.7154 24.3123 23.4311 24.4973 23.0328 24.6521C22.7321 24.7689 22.2803 24.9079 21.4483 24.9459C20.5486 24.9869 20.2788 24.9956 18.0001 24.9956C15.7214 24.9956 15.4516 24.9869 14.5519 24.9459C13.7199 24.9079 13.2681 24.7689 12.9674 24.6521C12.5691 24.4973 12.2848 24.3123 11.9862 24.0137C11.6876 23.7151 11.5027 23.4309 11.3479 23.0326C11.231 22.7319 11.092 22.28 11.0541 21.448C11.013 20.5482 11.0043 20.2783 11.0043 17.9999C11.0043 15.7214 11.013 15.4515 11.0541 14.5517C11.092 13.7197 11.231 13.2678 11.3479 12.9672C11.5027 12.5689 11.6876 12.2846 11.9862 11.986C12.2848 11.6874 12.5691 11.5025 12.9674 11.3477C13.2681 11.2308 13.7199 11.0918 14.5519 11.0538C15.4517 11.0128 15.7216 11.0041 18.0001 11.0041Z" fill="white"/>
<path d="M18.0001 20.8443C16.4292 20.8443 15.1557 19.5708 15.1557 17.9999C15.1557 16.4289 16.4292 15.1554 18.0001 15.1554C19.5711 15.1554 20.8446 16.4289 20.8446 17.9999C20.8446 19.5708 19.5711 20.8443 18.0001 20.8443ZM18.0001 13.6179C15.58 13.6179 13.6182 15.5798 13.6182 17.9999C13.6182 20.42 15.58 22.3818 18.0001 22.3818C20.4202 22.3818 22.3821 20.42 22.3821 17.9999C22.3821 15.5798 20.4202 13.6179 18.0001 13.6179Z" fill="white"/>
<path d="M23.5792 13.4449C23.5792 14.0104 23.1208 14.4689 22.5552 14.4689C21.9897 14.4689 21.5312 14.0104 21.5312 13.4449C21.5312 12.8793 21.9897 12.4209 22.5552 12.4209C23.1208 12.4209 23.5792 12.8793 23.5792 13.4449Z" fill="white"/>
</svg>
