<svg width="125" height="62" viewBox="0 0 125 62" fill="none" xmlns="http://www.w3.org/2000/svg">
<g clip-path="url(#clip0_155_2005)">
<path d="M116.891 47.2593H7.90625C5.51562 47.2593 3.54688 45.3063 3.54688 42.9348V16.9878C3.54688 14.6163 5.51562 12.6633 7.90625 12.6633H116.906C119.297 12.6633 121.266 14.6163 121.266 16.9878V42.9348C121.25 45.3218 119.297 47.2593 116.891 47.2593Z" fill="black"/>
<path d="M116.891 13.3608C118.906 13.3608 120.547 14.9883 120.547 16.9878V42.9348C120.547 44.9343 118.906 46.5618 116.891 46.5618H7.90625C5.89062 46.5618 4.25 44.9343 4.25 42.9348V16.9878C4.25 14.9883 5.89062 13.3608 7.90625 13.3608H116.891ZM116.891 12.6633H7.90625C5.51562 12.6633 3.54688 14.6163 3.54688 16.9878V42.9348C3.54688 45.3063 5.51562 47.2593 7.90625 47.2593H116.906C119.297 47.2593 121.266 45.3063 121.266 42.9348V16.9878C121.25 14.6163 119.297 12.6633 116.891 12.6633Z" fill="#A6A6A6"/>
<path d="M62.9531 31.4804C60.9062 31.4804 59.2344 33.0304 59.2344 35.1539C59.2344 37.2774 60.9062 38.8274 62.9531 38.8274C65 38.8274 66.6719 37.2619 66.6719 35.1539C66.6719 33.0304 65 31.4804 62.9531 31.4804ZM62.9531 37.3859C61.8281 37.3859 60.8594 36.4714 60.8594 35.1539C60.8594 33.8364 61.8281 32.9219 62.9531 32.9219C64.0781 32.9219 65.0469 33.8209 65.0469 35.1539C65.0469 36.4714 64.0781 37.3859 62.9531 37.3859ZM54.8281 31.4804C52.7812 31.4804 51.1094 33.0304 51.1094 35.1539C51.1094 37.2774 52.7812 38.8274 54.8281 38.8274C56.875 38.8274 58.5469 37.2619 58.5469 35.1539C58.5625 33.0304 56.8906 31.4804 54.8281 31.4804ZM54.8281 37.3859C53.7031 37.3859 52.7344 36.4714 52.7344 35.1539C52.7344 33.8364 53.7031 32.9219 54.8281 32.9219C55.9531 32.9219 56.9219 33.8209 56.9219 35.1539C56.9219 36.4714 55.9531 37.3859 54.8281 37.3859ZM45.1719 32.6119V34.1774H48.9375C48.8281 35.0609 48.5312 35.6964 48.0781 36.1459C47.5312 36.6884 46.6719 37.2929 45.1719 37.2929C42.8594 37.2929 41.0469 35.4329 41.0469 33.1389C41.0469 30.8449 42.8594 28.9849 45.1719 28.9849C46.4219 28.9849 47.3281 29.4654 48.0156 30.1009L49.125 29.0004C48.1875 28.1014 46.9375 27.4194 45.1719 27.4194C42 27.4194 39.3281 29.9769 39.3281 33.1389C39.3281 36.2854 42 38.8584 45.1719 38.8584C46.8906 38.8584 48.1719 38.3004 49.1875 37.2619C50.2344 36.2234 50.5469 34.7819 50.5469 33.6039C50.5469 33.2474 50.5156 32.9064 50.4687 32.6274L45.1719 32.6119ZM84.6719 33.8209C84.3594 32.9994 83.4219 31.4804 81.5 31.4804C79.5937 31.4804 78 32.9684 78 35.1539C78 37.2154 79.5781 38.8274 81.6875 38.8274C83.3906 38.8274 84.375 37.7889 84.7812 37.1999L83.5156 36.3629C83.0937 36.9829 82.5156 37.3859 81.6875 37.3859C80.8594 37.3859 80.2656 37.0139 79.8906 36.2699L84.8437 34.2394L84.6719 33.8209ZM79.625 35.0454C79.5781 33.6194 80.7344 32.9064 81.5625 32.9064C82.2031 32.9064 82.75 33.2319 82.9375 33.6814L79.625 35.0454ZM75.5937 38.6104H77.2187V27.7914H75.5937V38.6104ZM72.9219 32.3019H72.8594C72.5 31.8679 71.7969 31.4804 70.9062 31.4804C69.0469 31.4804 67.3594 33.0924 67.3594 35.1694C67.3594 37.2309 69.0625 38.8274 70.9062 38.8274C71.7969 38.8274 72.5 38.4399 72.8594 37.9904H72.9219V38.5174C72.9219 39.9279 72.1562 40.6719 70.9375 40.6719C69.9375 40.6719 69.3281 39.9589 69.0625 39.3699L67.6406 39.9589C68.0469 40.9354 69.125 42.1289 70.9219 42.1289C72.8281 42.1289 74.4531 41.0129 74.4531 38.3004V31.6974H72.9062V32.3019H72.9219ZM71.0469 37.3859C69.9219 37.3859 68.9844 36.4559 68.9844 35.1694C68.9844 33.8674 69.9219 32.9219 71.0469 32.9219C72.1562 32.9219 73.0312 33.8674 73.0312 35.1694C73.0312 36.4559 72.1562 37.3859 71.0469 37.3859ZM92.3125 27.8069H88.4219V38.6259H90.0469V34.5339H92.3125C94.1094 34.5339 95.8906 33.2319 95.8906 31.1704C95.8906 29.0934 94.1094 27.8069 92.3125 27.8069ZM92.3594 33.0149H90.0469V29.3104H92.3594C93.5781 29.3104 94.2656 30.3024 94.2656 31.1704C94.2656 31.9919 93.5781 33.0149 92.3594 33.0149ZM102.406 31.4649C101.234 31.4649 100.016 31.9764 99.5 33.1234L100.937 33.7279C101.25 33.1234 101.828 32.9374 102.422 32.9374C103.266 32.9374 104.125 33.4334 104.125 34.3324V34.4409C103.828 34.2704 103.203 34.0224 102.422 34.0224C100.859 34.0224 99.2812 34.8749 99.2812 36.4559C99.2812 37.8974 100.562 38.8274 101.984 38.8274C103.078 38.8274 103.687 38.3469 104.062 37.7734H104.125V38.6104H105.703V34.4719C105.719 32.5344 104.281 31.4649 102.406 31.4649ZM102.219 37.3859C101.687 37.3859 100.937 37.1224 100.937 36.4714C100.937 35.6344 101.859 35.3244 102.656 35.3244C103.375 35.3244 103.703 35.4794 104.141 35.6809C104.016 36.6729 103.156 37.3859 102.219 37.3859ZM111.437 31.6974L109.578 36.3784H109.516L107.578 31.6974H105.828L108.734 38.2539L107.078 41.8964H108.781L113.25 31.6974H111.437ZM96.7812 38.6104H98.4062V27.7914H96.7812V38.6104Z" fill="white"/>
<path d="M12.6406 19.189C12.3906 19.4525 12.2344 19.871 12.2344 20.398V39.525C12.2344 40.0675 12.3906 40.4704 12.6406 40.7339L12.7031 40.796L23.5 30.0855V29.9615V29.8375L12.7031 19.127L12.6406 19.189Z" fill="url(#paint0_linear_155_2005)"/>
<path d="M27.1094 33.6658L23.5156 30.0853V29.9613V29.8373L27.125 26.2568L27.2031 26.3033L31.4687 28.7058C32.6875 29.3878 32.6875 30.5193 31.4687 31.2013L27.1875 33.6193L27.1094 33.6658Z" fill="url(#paint1_linear_155_2005)"/>
<path d="M27.1875 33.6194L23.5 29.9614L12.625 40.7494C13.0312 41.1679 13.6875 41.2299 14.4375 40.7959L27.1875 33.6194Z" fill="url(#paint2_linear_155_2005)"/>
<path d="M27.1875 26.3189L14.4531 19.1424C13.7031 18.7239 13.0469 18.7704 12.6406 19.1889L23.5156 29.9769L27.1875 26.3189Z" fill="url(#paint3_linear_155_2005)"/>
<path opacity="0.2" d="M27.1094 33.542L14.4531 40.672C13.75 41.075 13.1094 41.044 12.7031 40.6875L12.6406 40.7495L12.7031 40.8115C13.1094 41.168 13.75 41.199 14.4531 40.796L27.1875 33.6195L27.1094 33.542Z" fill="black"/>
<path opacity="0.12" d="M12.6406 40.6255C12.3906 40.362 12.2344 39.9435 12.2344 39.4165V39.5405C12.2344 40.083 12.3906 40.486 12.6406 40.7495L12.7031 40.6875L12.6406 40.6255Z" fill="black"/>
<path opacity="0.12" d="M31.4531 31.0929L27.1094 33.5419L27.1875 33.6194L31.4531 31.2169C32.0625 30.8759 32.375 30.4264 32.375 29.9614C32.3125 30.3799 32.0156 30.7829 31.4531 31.0929Z" fill="black"/>
<path opacity="0.25" d="M14.4531 19.2664L31.4531 28.8454C32 29.1554 32.3125 29.5584 32.375 29.9614C32.375 29.5119 32.0781 29.0624 31.4531 28.7059L14.4531 19.1269C13.2344 18.4449 12.2344 19.0184 12.2344 20.3979V20.5219C12.2344 19.1424 13.2344 18.5689 14.4531 19.2664Z" fill="white"/>
<path d="M41.0469 24.025C40.6719 24.025 40.3438 23.9165 40.0781 23.715C39.8125 23.498 39.625 23.2035 39.5156 22.8315L40.125 22.5835C40.2813 23.126 40.5938 23.405 41.0781 23.405C41.3906 23.405 41.625 23.312 41.7969 23.1105C41.9688 22.909 42.0469 22.6455 42.0469 22.289V18.7395H42.7188V22.2735C42.7188 22.8315 42.5625 23.281 42.25 23.5755C41.9375 23.87 41.5313 24.025 41.0469 24.025Z" fill="white" stroke="white" stroke-width="0.2" stroke-miterlimit="10"/>
<path d="M46.8907 19.3595H44.5156V21.0025H46.6719V21.6225H44.5156V23.2655H46.8907V23.901H43.8438V18.7085H46.8907V19.3595Z" fill="white" stroke="white" stroke-width="0.2" stroke-miterlimit="10"/>
<path d="M49.7188 23.9164H49.0469V19.3594H47.5781V18.7239H51.1719V19.3594H49.7188V23.9164Z" fill="white" stroke="white" stroke-width="0.2" stroke-miterlimit="10"/>
<path d="M51.7344 23.9164V23.2189L54.5156 19.3594H51.8437V18.7239H55.2969V19.4214L52.5156 23.2809H55.3281V23.9164H51.7344Z" fill="white" stroke="white" stroke-width="0.2" stroke-miterlimit="10"/>
<path d="M58.0781 23.9164H57.4062V19.3594H55.9375V18.7239H59.5312V19.3594H58.0625V23.9164H58.0781Z" fill="white" stroke="white" stroke-width="0.2" stroke-miterlimit="10"/>
<path d="M62.1406 23.9164V18.7239H64.0312C64.4375 18.7239 64.7969 18.8634 65.0938 19.1269C65.3906 19.3904 65.5469 19.7314 65.5469 20.1344C65.5469 20.3824 65.4844 20.5994 65.3594 20.7854C65.2344 20.9714 65.0625 21.1109 64.8438 21.2194V21.2504C65.1094 21.3434 65.3125 21.4829 65.4844 21.6999C65.6563 21.9169 65.7344 22.1649 65.7344 22.4439C65.7344 22.8624 65.5781 23.2189 65.2656 23.4979C64.9531 23.7769 64.5781 23.9164 64.1563 23.9164H62.1406ZM62.8125 20.9404H64.0312C64.2812 20.9404 64.4844 20.8629 64.6406 20.6924C64.7969 20.5219 64.875 20.3359 64.875 20.1499C64.875 19.9484 64.7969 19.7779 64.6562 19.6074C64.5156 19.4369 64.3125 19.3594 64.0625 19.3594H62.8125V20.9404ZM62.8125 23.2654H64.1719C64.4375 23.2654 64.6406 23.1724 64.7969 23.0019C64.9531 22.8314 65.0313 22.6299 65.0313 22.4129C65.0313 22.1959 64.9531 22.0099 64.7813 21.8239C64.6094 21.6534 64.4062 21.5604 64.125 21.5604H62.8125V23.2654Z" fill="white" stroke="white" stroke-width="0.2" stroke-miterlimit="10"/>
<path d="M69.6875 19.3595H67.3125V21.0025H69.4688V21.6225H67.3125V23.2655H69.6875V23.901H66.6406V18.7085H69.6875V19.3595Z" fill="white" stroke="white" stroke-width="0.2" stroke-miterlimit="10"/>
<path d="M70.7344 23.9164V18.7239H71.4062V23.9164H70.7344Z" fill="white" stroke="white" stroke-width="0.2" stroke-miterlimit="10"/>
</g>
<defs>
<linearGradient id="paint0_linear_155_2005" x1="22.5465" y1="20.1969" x2="8.03022" y2="34.8301" gradientUnits="userSpaceOnUse">
<stop stop-color="#00A0FF"/>
<stop offset="0.00657445" stop-color="#00A1FF"/>
<stop offset="0.2601" stop-color="#00BEFF"/>
<stop offset="0.5122" stop-color="#00D2FF"/>
<stop offset="0.7604" stop-color="#00DFFF"/>
<stop offset="1" stop-color="#00E3FF"/>
</linearGradient>
<linearGradient id="paint1_linear_155_2005" x1="33.0432" y1="29.9613" x2="11.9447" y2="29.9613" gradientUnits="userSpaceOnUse">
<stop stop-color="#FFE000"/>
<stop offset="0.4087" stop-color="#FFBD00"/>
<stop offset="0.7754" stop-color="#FFA500"/>
<stop offset="1" stop-color="#FF9C00"/>
</linearGradient>
<linearGradient id="paint2_linear_155_2005" x1="25.1851" y1="31.9478" x2="5.49974" y2="51.7919" gradientUnits="userSpaceOnUse">
<stop stop-color="#FF3A44"/>
<stop offset="1" stop-color="#C31162"/>
</linearGradient>
<linearGradient id="paint3_linear_155_2005" x1="9.90116" y1="12.8211" x2="18.6914" y2="21.6822" gradientUnits="userSpaceOnUse">
<stop stop-color="#32A071"/>
<stop offset="0.0685" stop-color="#2DA771"/>
<stop offset="0.4762" stop-color="#15CF74"/>
<stop offset="0.8009" stop-color="#06E775"/>
<stop offset="1" stop-color="#00F076"/>
</linearGradient>
<clipPath id="clip0_155_2005">
<rect width="125" height="62" fill="white"/>
</clipPath>
</defs>
</svg>
