<svg width="36" height="36" viewBox="0 0 36 36" fill="none" xmlns="http://www.w3.org/2000/svg">
<rect width="36" height="36" rx="18" fill="#888DA0"/>
<path d="M26.6397 13.3146C26.0008 13.5986 25.3132 13.7902 24.5918 13.8759C25.3284 13.4349 25.8932 12.7364 26.1595 11.9032C25.4706 12.312 24.7079 12.6087 23.8954 12.7689C23.2452 12.076 22.3185 11.6428 21.293 11.6428C19.3241 11.6428 17.7278 13.2391 17.7278 15.2083C17.7278 15.4874 17.7592 15.7594 17.8202 16.0208C14.8569 15.8719 12.2294 14.4527 10.4708 12.2955C10.1639 12.8218 9.98823 13.4342 9.98823 14.0883C9.98823 15.3251 10.6176 16.4166 11.5743 17.0558C10.9901 17.0371 10.4401 16.8766 9.9593 16.6096C9.95895 16.6244 9.95895 16.6396 9.95895 16.6547C9.95895 18.3819 11.188 19.8227 12.8193 20.1508C12.5201 20.2319 12.2051 20.2756 11.8798 20.2756C11.6498 20.2756 11.4265 20.2534 11.2088 20.2114C11.6629 21.6278 12.9794 22.659 14.5394 22.6876C13.3192 23.6439 11.7821 24.214 10.1113 24.214C9.82384 24.214 9.53985 24.1971 9.2608 24.1639C10.8391 25.1761 12.7131 25.7659 14.7264 25.7659C21.2849 25.7659 24.8708 20.3331 24.8708 15.6214C24.8708 15.4669 24.8677 15.3128 24.861 15.1597C25.5573 14.658 26.162 14.0297 26.6397 13.3146Z" fill="white"/>
</svg>
